{"title":"If a Man Answers 1962 DVDRip Sandra Dee Bobby Darin","uid":6529662,"size":1212868559,"categoryP":"video","categoryS":"movies","magnet":"?xt=urn:btih:e27ea9479342f5c5bec2487782832f7f18fe90d9&amp;dn=If+a+Man+Answers+1962+DVDRip+Sandra+Dee+Bobby+Darin+&amp;tr=udp%3A%2F%2Ftracker.openbittorrent.com%3A80&amp;tr=udp%3A%2F%2Fopen.demonii.com%3A1337&amp;tr=udp%3A%2F%2Ftracker.coppersurfer.tk%3A6969&amp;tr=udp%3A%2F%2Fexodus.desync.com%3A6969","seeders":4,"leechers":2,"uploader":"CrowTR","files":1,"time":1310294100,"description":" &lt;a href=&quot;http://www.imdb.com/title/tt0056093/&quot; rel=&quot;nofollow&quot; target=&quot;_NEW&quot;&gt;http://www.imdb.com/title/tt0056093/&lt;/a&gt;\n\nRich socialite, Sandra Dee meets and marries photographer Bobby Darin and attempts to &quot;train&quot; him to be the perfect husband. Look for a very young Stephanie Powers as the devious friend . \n\nGeneral\nComplete name                    : D:\\Torrent\\If.a.Man.Answers.1962.subs.mp4\nFormat                           : MPEG-4\nFormat profile                   : Base Media / Version 2\nCodec ID                         : mp42\nFile size                        : 1.13 GiB\nDuration                         : 1h 42mn\nOverall bit rate                 : 1 585 Kbps\nEncoded date                     : UTC 2011-07-09 17:31:34\nTagged date                      : UTC 2011-07-09 18:31:56\n\nVideo\nID                               : 1\nFormat                           : MPEG-4 Visual\nFormat profile                   : AdvancedSimple@L5\nFormat settings, BVOP            : Yes\nFormat settings, QPel            : No\nFormat settings, GMC             : No warppoints\nFormat settings, Matrix          : Default (H.263)\nCodec ID                         : 20\nDuration                         : 1h 41mn\nBit rate mode                    : Variable\nBit rate                         : 1 491 Kbps\nMaximum bit rate                 : 4 621 Kbps\nWidth                            : 720 pixels\nHeight                           : 368 pixels\nDisplay aspect ratio             : 1.957\nFrame rate mode                  : Constant\nFrame rate                       : 23.976 fps\nResolution                       : 24 bits\nColorimetry                      : 4:2:0\nScan type                        : Progressive\nBits/(Pixel*Frame)               : 0.235\nStream size                      : 1.06 GiB (94%)\nWriting library                  : em4v 4.1.6.5\nLanguage                         : English\nEncoded date                     : UTC 2011-07-09 17:31:34\nTagged date                      : UTC 2011-07-09 18:31:56\n\nAudio\nID                               : 2\nFormat                           : AAC\nFormat/Info                      : Advanced Audio Codec\nFormat version                   : Version 4\nFormat profile                   : LC\nFormat settings, SBR             : No\nCodec ID                         : 40\nDuration                         : 1h 41mn\nBit rate mode                    : Variable\nBit rate                         : 80.4 Kbps\nMaximum bit rate                 : 99.6 Kbps\nChannel(s)                       : 2 channels\nChannel positions                : L R\nSampling rate                    : 44.1 KHz\nResolution                       : 16 bits\nStream size                      : 58.6 MiB (5%)\nLanguage                         : English\nEncoded date                     : UTC 2011-07-09 17:31:34\nTagged date                      : UTC 2011-07-09 18:31:56\n\nText #1\nID                               : 3\nFormat                           : VobSub\nCodec ID                         : subp\nCodec ID/Info                    : The same subtitle format used on DVDs\nDuration                         : 1h 41mn\nBit rate mode                    : Variable\nBit rate                         : 6 229 bps\nStream size                      : 4.52 MiB (0%)\nTitle                            : English\nLanguage                         : English\nEncoded date                     : UTC 2011-07-09 17:31:50\nTagged date                      : UTC 2011-07-09 18:31:56\n\nText #2\nID                               : 4\nFormat                           : VobSub\nCodec ID                         : subp\nCodec ID/Info                    : The same subtitle format used on DVDs\nDuration                         : 1h 42mn\nBit rate mode                    : Variable\nBit rate                         : 5 006 bps\nStream size                      : 3.65 MiB (0%)\nTitle                            : Spanish\nLanguage                         : Spanish\nEncoded date                     : UTC 2011-07-09 17:33:03\nTagged date                      : UTC 2011-07-09 18:31:56\n","torrent":{"xt":"urn:btih:e27ea9479342f5c5bec2487782832f7f18fe90d9","amp;dn":"If+a+Man+Answers+1962+DVDRip+Sandra+Dee+Bobby+Darin+","amp;tr":["udp%3A%2F%2Ftracker.openbittorrent.com%3A80","udp%3A%2F%2Fopen.demonii.com%3A1337","udp%3A%2F%2Ftracker.coppersurfer.tk%3A6969","udp%3A%2F%2Fexodus.desync.com%3A6969"],"infoHash":"e27ea9479342f5c5bec2487782832f7f18fe90d9","infoHashBuffer":{"type":"Buffer","data":[226,126,169,71,147,66,245,197,190,194,72,119,130,131,47,127,24,254,144,217]},"announce":[],"urlList":[]}}